<svg width="117" height="116" viewBox="0 0 117 116" fill="none" xmlns="http://www.w3.org/2000/svg">
    <circle opacity="0.745489" cx="58.5" cy="58" r="58" fill="#FFF4F5"/>
    <path d="M91.3417 38.4962L82.0598 34.3121C81.7566 34.1761 81.5142 33.9308 81.3795 33.6238L77.2508 24.2212L67.1465 25.2913C66.8198 25.3228 66.4929 25.2325 66.2272 25.0373L57.9975 19L49.772 25.039C49.5062 25.234 49.1794 25.3243 48.8526 25.293L38.7442 24.2212L34.6155 33.6238C34.4815 33.9308 34.2392 34.176 33.936 34.3113L24.6541 38.4962L25.7088 48.7294C25.7419 49.0621 25.6526 49.3955 25.4581 49.6658L19.5 57.9983L25.4615 66.3308C25.6559 66.6011 25.7451 66.9345 25.7122 67.2672L24.6541 77.5021L33.936 81.6845C34.239 81.8209 34.4812 82.0665 34.6155 82.3736L38.7442 91.7763L48.8493 90.7095C48.8944 90.7095 48.9412 90.7019 48.983 90.7019C49.2652 90.702 49.5401 90.793 49.7678 90.9618L57.9983 97L66.2239 90.9618C66.4891 90.7657 66.8163 90.6753 67.1432 90.7078L77.2508 91.7763L81.3795 82.3736C81.5143 82.067 81.7568 81.822 82.0598 81.6862L91.3417 77.5021L90.2887 67.2681C90.2552 66.9353 90.3445 66.6017 90.5394 66.3317L96.5 57.9992L90.5394 49.6666C90.3445 49.3966 90.2552 49.063 90.2887 48.7303L91.3417 38.4962Z" fill="#F7696F"/>
    <path d="M71.6501 44.3717C71.2453 43.966 70.6957 43.738 70.1226 43.738C69.5494 43.738 68.9999 43.966 68.5951 44.3717L58.0001 54.945L47.4051 44.35C47.0003 43.9443 46.4507 43.7163 45.8776 43.7163C45.3044 43.7163 44.7549 43.9443 44.3501 44.35C43.5051 45.195 43.5051 46.56 44.3501 47.405L54.9451 58L44.3501 68.595C43.5051 69.44 43.5051 70.805 44.3501 71.65C45.1951 72.495 46.5601 72.495 47.4051 71.65L58.0001 61.055L68.5951 71.65C69.4401 72.495 70.8051 72.495 71.6501 71.65C72.4951 70.805 72.4951 69.44 71.6501 68.595L61.0551 58L71.6501 47.405C72.4734 46.5817 72.4734 45.195 71.6501 44.3717Z" fill="white"/>
</svg>
