<svg xmlns="http://www.w3.org/2000/svg" width="36" height="41" viewBox="0 0 36 41">
    <g fill="none" fill-rule="evenodd">
        <g fill-rule="nonzero">
            <g>
                <g>
                    <path fill="#EFEFEF" d="M7.612 0C6.217 0 5.075 1.142 5.075 2.538v35.524c0 1.396 1.142 2.538 2.537 2.538h25.375c1.396 0 2.538-1.142 2.538-2.538V10.15L25.375 0H7.613z" transform="translate(-80 -469) translate(24 450) translate(56 19)"/>
                    <path fill="#B0B7BD" d="M27.913 10.15h7.612L25.375 0v7.612c0 1.396 1.142 2.538 2.538 2.538z" transform="translate(-80 -469) translate(24 450) translate(56 19)"/>
                    <path fill="#CAD1D8" d="M35.525 17.762L27.913 10.15 35.525 10.15z" transform="translate(-80 -469) translate(24 450) translate(56 19)"/>
                    <path fill="#4086F4" d="M30.45 32.987c0 .698-.57 1.27-1.269 1.27H1.27C.57 34.256 0 33.684 0 32.986V20.3c0-.698.57-1.269 1.269-1.269H29.18c.698 0 1.269.571 1.269 1.269v12.687z" transform="translate(-80 -469) translate(24 450) translate(56 19)"/>
                    <g fill="#FFF">
                        <path d="M.76 7.295c-.336 0-.701-.184-.701-.629V.905c0-.366.365-.63.7-.63h2.323c4.636 0 4.534 7.02.09 7.02H.76zm.639-5.783v4.545h1.683c2.74 0 2.86-4.545 0-4.545H1.4zM11.498 7.397c-1.876.081-3.825-1.167-3.825-3.653 0-2.496 1.947-3.722 3.825-3.722 1.775.09 3.631 1.318 3.631 3.722 0 2.406-1.856 3.653-3.631 3.653zm-.112-6.056c-1.136 0-2.373.802-2.373 2.404 0 1.594 1.238 2.406 2.373 2.406 1.168 0 2.415-.812 2.415-2.406 0-1.603-1.247-2.404-2.415-2.404zM16.323 3.734c0-1.958 1.228-3.641 3.561-3.641.884 0 1.584.264 2.324.903.274.252.304.699.03.983-.274.243-.69.213-.934-.03-.415-.437-.841-.557-1.42-.557-1.561 0-2.311 1.106-2.311 2.343 0 1.259.74 2.415 2.311 2.415.579 0 1.117-.235 1.584-.65.313-.244.75-.123.932.122.163.223.243.599-.111.953-.71.66-1.562.793-2.406.793-2.454 0-3.56-1.676-3.56-3.634z" transform="translate(-80 -469) translate(24 450) translate(56 19) translate(4.044 23.155)"/>
                    </g>
                    <path fill="#CAD1D8" d="M29.181 34.256H5.075v1.269h24.106c.698 0 1.269-.57 1.269-1.269v-1.269c0 .698-.57 1.27-1.269 1.27z" transform="translate(-80 -469) translate(24 450) translate(56 19)"/>
                </g>
            </g>
        </g>
    </g>
</svg>
