<svg xmlns="http://www.w3.org/2000/svg" width="20" height="20" viewBox="0 0 20 20">
    <g fill="none" fill-rule="evenodd">
        <g>
            <g>
                <g>
                    <g>
                        <path d="M0 0L20 0 20 20 0 20z" transform="translate(-260 -319) translate(0 223) translate(260 96)"/>
                        <g fill="#99A2AD">
                            <path d="M14.799 5.49L9.462.18c-.243-.241-.607-.241-.85 0l-1.94 1.93c-.304.302-.182.664 0 .845l.424.422-1.82 1.81c-.91-.18-3.396-.603-4.73.724-.243.242-.243.603 0 .845l3.457 3.439-3.821 3.8c-.243.242-.243.604 0 .845s.667.18.85 0l3.82-3.8 3.457 3.438c.364.302.728.18.85 0 1.334-1.327.91-3.8.727-4.706l1.82-1.81.424.423c.243.241.607.241.85 0l1.94-1.93c.122-.363.122-.725-.121-.966zm-2.365 1.508l-.425-.422c-.243-.241-.606-.241-.85 0L8.674 9.11c-.182.18-.242.362-.182.603.182.664.485 2.292 0 3.378L1.82 6.455c1.03-.482 2.729-.18 3.396 0 .182.06.425 0 .607-.18L8.309 3.8c.364-.362.182-.664 0-.845l-.424-.422 1.152-1.086 4.488 4.464-1.091 1.086z" transform="translate(-260 -319) translate(0 223) translate(260 96) translate(2.5 2.5)"/>
                        </g>
                    </g>
                </g>
            </g>
        </g>
    </g>
</svg>
