<svg xmlns="http://www.w3.org/2000/svg" width="36" height="41" viewBox="0 0 36 41">
    <g fill="none" fill-rule="evenodd">
        <g fill-rule="nonzero">
            <g>
                <g>
                    <path fill="#EFEFEF" d="M7.612 0C6.217 0 5.075 1.142 5.075 2.538v35.524c0 1.396 1.142 2.538 2.537 2.538h25.375c1.396 0 2.538-1.142 2.538-2.538V10.15L25.375 0H7.613z" transform="translate(-80 -595) translate(24 572) translate(56 23)"/>
                    <path fill="#B0B7BD" d="M27.913 10.15h7.612L25.375 0v7.612c0 1.396 1.142 2.538 2.538 2.538z" transform="translate(-80 -595) translate(24 572) translate(56 23)"/>
                    <path fill="#CAD1D8" d="M35.525 17.762L27.913 10.15 35.525 10.15z" transform="translate(-80 -595) translate(24 572) translate(56 23)"/>
                    <path fill="#FDC009" d="M30.45 32.987c0 .698-.57 1.27-1.269 1.27H1.27C.57 34.256 0 33.684 0 32.986V20.3c0-.698.57-1.269 1.269-1.269H29.18c.698 0 1.269.571 1.269 1.269v12.687z" transform="translate(-80 -595) translate(24 572) translate(56 23)"/>
                    <g fill="#FFF">
                        <path d="M.036.726c0-.335.264-.7.69-.7h2.342c1.32 0 2.508.882 2.508 2.575 0 1.604-1.188 2.497-2.508 2.497H1.375v1.34c0 .446-.283.699-.649.699-.335 0-.689-.253-.689-.7V.727zm1.339.577V3.83h1.693c.68 0 1.218-.6 1.218-1.23 0-.708-.537-1.297-1.218-1.297H1.375zM6.868.726c0-.335.264-.7.69-.7h2.344c1.32 0 2.507.882 2.507 2.575 0 1.604-1.188 2.497-2.507 2.497H8.208v1.34c0 .446-.284.699-.65.699-.334 0-.69-.253-.69-.7V.727zm1.339.577V3.83H9.9c.68 0 1.218-.6 1.218-1.23 0-.708-.538-1.297-1.218-1.297H8.207zM15.596 1.385h-1.774c-.883 0-.883-1.297 0-1.297h4.798c.903 0 .903 1.297 0 1.297h-1.684V6.51c0 .881-1.34.903-1.34 0V1.385z" transform="translate(-80 -595) translate(24 572) translate(56 23) translate(5.789 23.313)"/>
                    </g>
                    <path fill="#CAD1D8" d="M29.181 34.256H5.075v1.269h24.106c.698 0 1.269-.57 1.269-1.269v-1.269c0 .698-.57 1.27-1.269 1.27z" transform="translate(-80 -595) translate(24 572) translate(56 23)"/>
                </g>
            </g>
        </g>
    </g>
</svg>
