<svg xmlns="http://www.w3.org/2000/svg" width="36" height="41" viewBox="0 0 36 41">
    <g fill="none" fill-rule="evenodd">
        <g fill-rule="nonzero">
            <g>
                <g>
                    <path fill="#EFEFEF" d="M7.612 0C6.217 0 5.075 1.142 5.075 2.538v35.524c0 1.396 1.142 2.538 2.537 2.538h25.375c1.396 0 2.538-1.142 2.538-2.538V10.15L25.375 0H7.613z" transform="translate(-244 -469) translate(188 450) translate(56 19)"/>
                    <path fill="#B0B7BD" d="M27.913 10.15h7.612L25.375 0v7.612c0 1.396 1.142 2.538 2.538 2.538z" transform="translate(-244 -469) translate(188 450) translate(56 19)"/>
                    <path fill="#CAD1D8" d="M35.525 17.762L27.913 10.15 35.525 10.15z" transform="translate(-244 -469) translate(188 450) translate(56 19)"/>
                    <path fill="#F15642" d="M30.45 32.987c0 .698-.57 1.27-1.269 1.27H1.27C.57 34.256 0 33.684 0 32.986V20.3c0-.698.57-1.269 1.269-1.269H29.18c.698 0 1.269.571 1.269 1.269v12.687z" transform="translate(-244 -469) translate(188 450) translate(56 19)"/>
                    <g fill="#FFF">
                        <path d="M.059.726c0-.335.264-.7.689-.7H3.09c1.32 0 2.507.882 2.507 2.575 0 1.604-1.187 2.497-2.507 2.497H1.398v1.34c0 .446-.285.699-.65.699-.335 0-.689-.253-.689-.7V.727zm1.339.577V3.83H3.09c.68 0 1.218-.6 1.218-1.23 0-.708-.538-1.297-1.218-1.297H1.398zM7.585 7.137c-.335 0-.7-.183-.7-.628V.746c0-.364.365-.63.7-.63h2.323c4.636 0 4.535 7.02.092 7.02H7.585zm.64-5.782V5.9h1.683c2.74 0 2.861-4.545 0-4.545H8.225zM16.087 1.436V3.05h2.587c.365 0 .73.365.73.72 0 .334-.365.608-.73.608h-2.587v2.13c0 .356-.252.628-.608.628-.446 0-.719-.272-.719-.628V.745c0-.364.274-.63.72-.63h3.56c.447 0 .711.266.711.63 0 .325-.264.69-.71.69h-2.954v.001z" transform="translate(-244 -469) translate(188 450) translate(56 19) translate(5.471 23.313)"/>
                    </g>
                    <path fill="#CAD1D8" d="M29.181 34.256H5.075v1.269h24.106c.698 0 1.269-.57 1.269-1.269v-1.269c0 .698-.57 1.27-1.269 1.27z" transform="translate(-244 -469) translate(188 450) translate(56 19)"/>
                </g>
            </g>
        </g>
    </g>
</svg>
